<svg xmlns="http://www.w3.org/2000/svg" width="24" height="24" fill="none"><g clip-path="url(#A)"><path d="M23.095 1.906A2.96 2.96 0 0 0 20.923 1H3.079a2.96 2.96 0 0 0-2.172.906 2.96 2.96 0 0 0-.906 2.172v17.844a2.96 2.96 0 0 0 .906 2.172A2.96 2.96 0 0 0 3.079 25h17.844a2.96 2.96 0 0 0 2.172-.907 2.96 2.96 0 0 0 .906-2.172V4.078a2.96 2.96 0 0 0-.906-2.172zM8.618 9.648c.943-.911 2.075-1.367 3.398-1.367 1.333 0 2.471.456 3.414 1.367s1.414 2.013 1.414 3.305-.471 2.393-1.414 3.304a4.73 4.73 0 0 1-3.414 1.367c-1.323 0-2.456-.456-3.398-1.367s-1.414-2.013-1.414-3.304.471-2.393 1.414-3.305zm12.664 11.633a.91.91 0 0 1-.281.679.93.93 0 0 1-.672.273H3.626c-.271 0-.498-.091-.68-.273a.92.92 0 0 1-.274-.679V11.156h2.203c-.208.656-.312 1.339-.312 2.047 0 2 .729 3.706 2.187 5.118s3.214 2.117 5.266 2.117a7.51 7.51 0 0 0 3.75-.969c1.146-.646 2.052-1.524 2.719-2.633s1-2.32 1-3.633a6.73 6.73 0 0 0-.313-2.047h2.11v10.125h0 0zm0-13.953a1.04 1.04 0 0 1-.313.766 1.04 1.04 0 0 1-.765.313h-2.719a1.04 1.04 0 0 1-.766-.313 1.04 1.04 0 0 1-.312-.766V4.75a1.05 1.05 0 0 1 .312-.758 1.03 1.03 0 0 1 .766-.32h2.719c.302 0 .557.107.765.32s.313.466.313.758v2.578z" fill="#fff"/></g><defs><clipPath id="A"><path fill="#fff" d="M0 0h24v24H0z"/></clipPath></defs></svg>