<svg xmlns="http://www.w3.org/2000/svg" width="24" height="24" fill="none"><g clip-path="url(#A)"><path d="M22.68 2.32A4.33 4.33 0 0 0 19.5 1h-15c-1.239 0-2.3.44-3.18 1.32S0 4.26 0 5.5v15c0 1.239.44 2.299 1.32 3.18A4.33 4.33 0 0 0 4.5 25h15a4.33 4.33 0 0 0 3.179-1.32A4.33 4.33 0 0 0 24 20.5v-15c0-1.24-.44-2.3-1.32-3.18zM7.313 21.094H3.703V10.25h3.609v10.844zM6.985 8.242c-.375.359-.87.539-1.484.539h-.016c-.594 0-1.075-.18-1.445-.539s-.555-.805-.555-1.336c0-.542.19-.99.57-1.344s.872-.531 1.477-.531 1.089.177 1.453.531.552.802.562 1.344c0 .531-.187.976-.562 1.336zm13.312 12.851h-3.609v-5.797c0-1.635-.604-2.453-1.812-2.453-.458 0-.844.128-1.156.383s-.547.565-.703.93c-.073.187-.109.479-.109.875v6.062H9.297V10.25h3.609v1.531C13.665 10.594 14.743 10 16.141 10c1.25 0 2.255.412 3.016 1.234s1.141 2.037 1.141 3.64v6.219h0z" fill="#f2f2f2"/></g><defs><clipPath id="A"><path fill="#fff" d="M0 0h24v24H0z"/></clipPath></defs></svg>