<svg xmlns="http://www.w3.org/2000/svg" width="24" height="24" fill="none"><g clip-path="url(#A)"><path d="M23.68.32A4.33 4.33 0 0 0 20.5-1h-15c-1.239 0-2.3.44-3.18 1.32S1 2.26 1 3.5v15c0 1.239.44 2.299 1.32 3.18A4.33 4.33 0 0 0 5.5 23h15a4.33 4.33 0 0 0 3.179-1.32A4.33 4.33 0 0 0 25 18.5v-15c0-1.24-.44-2.3-1.32-3.18zm-4.32 7.914c.01.094.016.234.016.422 0 .875-.128 1.753-.383 2.633s-.646 1.724-1.172 2.531a9.85 9.85 0 0 1-1.882 2.141c-.729.62-1.604 1.115-2.625 1.484S11.198 18 10.032 18c-1.812 0-3.489-.49-5.031-1.469a6.33 6.33 0 0 0 .781.047 6.48 6.48 0 0 0 4.078-1.406c-.708-.01-1.341-.229-1.898-.656s-.945-.969-1.164-1.625c.271.041.474.062.609.062.229 0 .495-.042.797-.125-.76-.146-1.401-.523-1.922-1.133a3.12 3.12 0 0 1-.781-2.086v-.031c.552.26 1.073.396 1.562.406-.948-.636-1.422-1.547-1.422-2.734a3.25 3.25 0 0 1 .453-1.656 9.3 9.3 0 0 0 3 2.422 9.29 9.29 0 0 0 3.781 1.016c-.052-.198-.078-.448-.078-.75a3.16 3.16 0 0 1 .961-2.32A3.16 3.16 0 0 1 16.078 5c.959 0 1.756.344 2.391 1.031.719-.135 1.417-.401 2.094-.797a3.19 3.19 0 0 1-1.453 1.828c.677-.094 1.307-.271 1.89-.531a6.38 6.38 0 0 1-1.641 1.703z" fill="#f2f2f2"/></g><defs><clipPath id="A"><path fill="#fff" d="M0 0h24v24H0z"/></clipPath></defs></svg>